HIERARCHY
ROOT Hips
{
	OFFSET 0.000000 0.000000 0.000000
	CHANNELS 6 Xposition Yposition Zposition Xrotation Yrotation Zrotation
	JOINT LeftUpLeg_virtual
	{
		OFFSET 0.000000 0.000000 0.000000
		CHANNELS 3 Xrotation Yrotation Zrotation
		JOINT LeftUpLeg
		{
			OFFSET 11.394100 -6.187798 -0.413800
			CHANNELS 3 Xrotation Yrotation Zrotation
			JOINT LeftLeg
			{
				OFFSET 0.430247 -32.302673 3.732800
				CHANNELS 3 Xrotation Yrotation Zrotation
				JOINT LeftFoot
				{
					OFFSET -0.430247 -48.264931 -6.423300
					CHANNELS 3 Xrotation Yrotation Zrotation
					JOINT LeftToeBase
					{
						OFFSET 4.230900 -16.068199 23.438400
						CHANNELS 3 Xrotation Yrotation Zrotation
						JOINT LeftToe_End
						{
							OFFSET 4.510700 0.695400 19.974600
							CHANNELS 3 Xrotation Yrotation Zrotation
							End Site
							{
								OFFSET 0 0 0
							}
						}
					}
				}
			}
		}
	}
	JOINT RightUpLeg_virtual
	{
		OFFSET 0.000000 0.000000 0.000000
		CHANNELS 3 Xrotation Yrotation Zrotation
		JOINT RightUpLeg
		{
			OFFSET -11.333700 -6.187798 -0.413800
			CHANNELS 3 Xrotation Yrotation Zrotation
			JOINT RightLeg
			{
				OFFSET -0.430392 -32.302628 3.733000
				CHANNELS 3 Xrotation Yrotation Zrotation
				JOINT RightFoot
				{
					OFFSET 0.430392 -48.264973 -6.423500
					CHANNELS 3 Xrotation Yrotation Zrotation
					JOINT RightToeBase
					{
						OFFSET -4.230900 -16.068199 23.438400
						CHANNELS 3 Xrotation Yrotation Zrotation
						JOINT RightToe_End
						{
							OFFSET -4.510700 0.695400 19.974600
							CHANNELS 3 Xrotation Yrotation Zrotation
							End Site
							{
								OFFSET 0 0 0
							}
						}
					}
				}
			}
		}
	}
	JOINT Spine_virtual
	{
		OFFSET 0.000000 0.000000 0.000000
		CHANNELS 3 Xrotation Yrotation Zrotation
		JOINT Spine
		{
			OFFSET -0.002400 12.777504 0.315300
			CHANNELS 3 Xrotation Yrotation Zrotation
			JOINT Spine1
			{
				OFFSET -0.002067 5.816869 0.032633
				CHANNELS 3 Xrotation Yrotation Zrotation
				JOINT Spine1_split
				{
					OFFSET -0.002067 5.816869 0.032633
					CHANNELS 3 Xrotation Yrotation Zrotation
					JOINT Spine2
					{
						OFFSET -0.002067 5.816869 0.032633
						CHANNELS 3 Xrotation Yrotation Zrotation
						JOINT Neck_virtual
						{
							OFFSET 0.000000 0.000000 0.000000
							CHANNELS 3 Xrotation Yrotation Zrotation
							JOINT Neck
							{
								OFFSET -0.003700 21.199493 -0.826900
								CHANNELS 3 Xrotation Yrotation Zrotation
								JOINT Head
								{
									OFFSET 0.000000 20.442200 4.834800
									CHANNELS 3 Xrotation Yrotation Zrotation
									JOINT HeadTop_End
									{
										OFFSET 0.000000 34.668396 4.968400
										CHANNELS 3 Xrotation Yrotation Zrotation
										End Site
										{
											OFFSET 0 0 0
										}
									}
								}
							}
						}
						JOINT LeftShoulder_virtual
						{
							OFFSET 0.000000 0.000000 0.000000
							CHANNELS 3 Xrotation Yrotation Zrotation
							JOINT LeftShoulder
							{
								OFFSET 3.288150 8.794197 -1.372250
								CHANNELS 3 Xrotation Yrotation Zrotation
								JOINT LeftShoulder_split
								{
									OFFSET 3.288150 8.794197 -1.372250
									CHANNELS 3 Xrotation Yrotation Zrotation
									JOINT LeftArm
									{
										OFFSET 11.953299 -2.279007 -0.146200
										CHANNELS 3 Xrotation Yrotation Zrotation
										JOINT LeftForeArm
										{
											OFFSET 18.448900 0.000000 0.000000
											CHANNELS 3 Xrotation Yrotation Zrotation
											JOINT LeftHand
											{
												OFFSET 29.527798 0.000000 0.000000
												CHANNELS 3 Xrotation Yrotation Zrotation
												End Site
												{
													OFFSET 0 0 0
												}
											}
										}
									}
								}
							}
						}
						JOINT RightShoulder_virtual
						{
							OFFSET 0.000000 0.000000 0.000000
							CHANNELS 3 Xrotation Yrotation Zrotation
							JOINT RightShoulder
							{
								OFFSET -3.249400 8.794197 -1.372250
								CHANNELS 3 Xrotation Yrotation Zrotation
								JOINT RightShoulder_split
								{
									OFFSET -3.249400 8.794197 -1.372250
									CHANNELS 3 Xrotation Yrotation Zrotation
									JOINT RightArm
									{
										OFFSET -11.953299 -2.279007 -0.146200
										CHANNELS 3 Xrotation Yrotation Zrotation
										JOINT RightForeArm
										{
											OFFSET -18.448900 0.000000 0.000000
											CHANNELS 3 Xrotation Yrotation Zrotation
											JOINT RightHand
											{
												OFFSET -29.527802 0.000000 0.000000
												CHANNELS 3 Xrotation Yrotation Zrotation
												End Site
												{
													OFFSET 0 0 0
												}
											}
										}
									}
								}
							}
						}
					}
				}
			}
		}
	}
}
MOTION
Frames: 8
Frame Time: 0.03333333
4.094210 101.452263 -0.405937 0.000000 0.000000 0.000000 -29.095445 -47.085842 -21.122976 -4.177475 16.604458 -0.649850 28.364201 4.116312 4.297162 -2.168869 5.099483 -2.561185 -2.742312 -2.113979 0.697744 0.000000 0.000000 0.000000 -27.077392 -45.167935 -19.805182 6.726832 -8.795291 -1.450837 22.308515 13.840680 -4.108912 -13.959475 -23.065421 8.890844 -2.561340 6.984446 -24.829957 0.000000 0.000000 0.000000 -29.351027 -42.354341 -22.225236 8.025824 -1.881331 -1.134699 3.472263 -0.688661 -1.217713 0.126185 -0.039751 0.014546 0.000000 0.000000 0.000000 6.872812 0.423308 -0.575034 4.106713 5.271169 1.874942 -15.534316 -10.283861 11.236464 0.000000 0.000000 0.000000 5.625874 -1.141289 -1.034065 4.182335 -5.439725 -11.058653 6.201325 -7.937276 0.574145 -31.136797 7.094883 -31.938388 7.414015 -48.967901 4.398238 0.000000 0.000000 0.000000 4.002528 -1.362577 -0.048234 -2.256759 8.898853 17.801836 1.733032 -1.372316 -0.096724 -12.018187 2.828885 58.617606 -7.809637 36.960954 2.384603 0.000000 0.000000 0.000000 
4.672804 101.563499 0.437601 0.000000 0.000000 0.000000 -31.205048 -49.932689 -23.477653 -3.080039 17.608212 -1.130707 27.001268 4.238063 4.101068 -2.432192 6.367448 -0.764841 -1.428981 -1.779628 0.591552 0.000000 0.000000 0.000000 -28.862395 -47.761969 -21.885871 5.646761 -8.871802 -1.964934 22.295264 13.819963 -4.194385 -12.045118 -22.485715 9.389098 -3.878111 7.448798 -24.630845 0.000000 0.000000 0.000000 -31.314314 -45.013839 -24.487249 8.296530 -1.848941 -1.371219 3.346453 -0.705788 -1.271556 0.120982 -0.062253 0.018171 0.000000 0.000000 0.000000 6.807542 0.414344 -0.547680 4.117299 5.426368 1.736888 -15.722368 -9.564373 11.168989 0.000000 0.000000 0.000000 5.544813 -1.129741 -1.012813 4.235531 -5.368371 -10.922728 6.024584 -7.992021 0.459435 -31.003089 7.241266 -31.811466 7.250059 -48.799267 4.323118 0.000000 0.000000 0.000000 3.946018 -1.385472 -0.043886 -2.272344 9.023939 18.013048 2.047569 -1.353212 -0.073264 -12.525283 3.033117 58.761026 -7.914027 36.653353 2.183081 0.000000 0.000000 0.000000 
5.256472 101.649315 1.310261 0.000000 0.000000 0.000000 -33.633077 -52.534608 -26.080061 -1.771207 18.333541 -1.614252 25.804279 4.051138 3.897137 -2.897400 7.356419 0.407369 -0.733266 -1.472111 0.454864 0.000000 0.000000 0.000000 -30.911466 -50.343521 -24.183704 4.637577 -9.028960 -2.360768 22.408712 13.335886 -4.147287 -10.686380 -21.967620 9.133828 -4.703435 7.734204 -23.721959 0.000000 0.000000 0.000000 -33.419275 -47.537024 -26.945902 8.463238 -1.863380 -1.603706 3.228861 -0.728847 -1.298630 0.138483 -0.083362 0.024338 0.000000 0.000000 0.000000 6.781986 0.395962 -0.502063 4.156390 5.600519 1.597704 -15.995509 -8.822954 11.129824 0.000000 0.000000 0.000000 5.542530 -1.122349 -0.961794 4.331446 -5.208441 -10.726099 5.894378 -8.073785 0.278808 -30.941956 7.341851 -31.773207 7.127557 -48.735838 4.293473 0.000000 0.000000 0.000000 3.966652 -1.411955 -0.039406 -2.269088 9.146225 18.182040 2.411559 -1.185883 0.029966 -12.985878 3.177100 58.860794 -7.992253 36.417985 1.962130 0.000000 0.000000 0.000000 
5.834616 101.703026 2.128313 0.000000 0.000000 0.000000 -36.325162 -54.823678 -28.933317 -0.467582 18.893997 -1.985509 24.874135 3.701173 3.663176 -3.423585 8.006237 1.021177 -0.652686 -1.179129 0.205123 0.000000 0.000000 0.000000 -33.226637 -52.860268 -26.752111 3.701959 -9.154158 -2.547117 22.693375 12.400840 -3.976584 -9.917389 -21.525328 8.186151 -4.794925 7.771239 -22.138393 0.000000 0.000000 0.000000 -35.605073 -49.874899 -29.543205 8.512124 -1.928042 -1.802827 3.117637 -0.758097 -1.312221 0.165288 -0.107904 0.036077 0.000000 0.000000 0.000000 6.813671 0.374091 -0.452943 4.204212 5.779675 1.500093 -16.300267 -8.100154 11.185596 0.000000 0.000000 0.000000 5.618040 -1.120397 -0.899698 4.460020 -4.966887 -10.488158 5.847282 -8.162220 0.095720 -30.967504 7.402212 -31.819150 7.075410 -48.742252 4.320588 0.000000 0.000000 0.000000 4.040239 -1.442306 -0.042753 -2.259421 9.264137 18.341908 2.811638 -0.912724 0.116716 -13.369434 3.259164 58.899911 -8.037335 36.242613 1.729162 0.000000 0.000000 0.000000 
6.407913 101.732300 2.875622 0.000000 0.000000 0.000000 -39.129532 -56.841237 -31.977737 0.854248 19.536534 -2.237167 24.200822 3.474444 3.390819 -4.143734 8.359032 1.609017 -0.739516 -0.955760 -0.013598 0.000000 0.000000 0.000000 -35.714762 -55.219156 -29.529746 2.818982 -9.132082 -2.530924 23.252436 11.223264 -3.713284 -9.574429 -21.073125 7.063420 -4.570927 7.673778 -20.105258 0.000000 0.000000 0.000000 -37.763494 -51.979915 -32.162166 8.489257 -2.040933 -1.944144 3.011589 -0.787493 -1.336152 0.178851 -0.140389 0.055267 0.000000 0.000000 0.000000 6.908030 0.350780 -0.417934 4.239241 5.949952 1.467310 -16.600732 -7.424395 11.375488 0.000000 0.000000 0.000000 5.743067 -1.124607 -0.848566 4.611431 -4.654110 -10.235063 5.890574 -8.269033 -0.052048 -31.091134 7.429368 -31.923597 7.073165 -48.781337 4.387237 0.000000 0.000000 0.000000 4.124810 -1.481686 -0.059066 -2.257500 9.359216 18.510593 3.244988 -0.630559 0.160918 -13.675615 3.297510 58.909125 -8.055695 36.128989 1.511345 0.000000 0.000000 0.000000 
6.913833 101.734131 3.499752 0.000000 0.000000 0.000000 -42.048253 -58.716008 -35.227520 2.028433 20.472821 -2.292951 23.804290 3.403915 3.035825 -5.076556 8.401835 2.292634 -0.295132 -0.813772 -0.134368 0.000000 0.000000 0.000000 -38.358172 -57.351644 -32.509870 1.983422 -8.932086 -2.356175 24.299633 9.930646 -3.406817 -9.481244 -20.622114 6.199145 -4.413402 7.512829 -17.956873 0.000000 0.000000 0.000000 -39.837167 -53.862725 -34.723603 8.478922 -2.208624 -2.024219 2.902580 -0.811601 -1.379649 0.186422 -0.180744 0.059491 0.000000 0.000000 0.000000 7.041082 0.328058 -0.405851 4.249244 6.103206 1.496376 -16.875309 -6.810855 11.707046 0.000000 0.000000 0.000000 5.889788 -1.132024 -0.824851 4.779620 -4.290895 -10.022011 5.999552 -8.447575 -0.112172 -31.306374 7.433964 -32.057575 7.094751 -48.834084 4.475076 0.000000 0.000000 0.000000 4.188979 -1.532175 -0.093249 -2.268505 9.401273 18.671835 3.685028 -0.347813 0.142284 -13.902804 3.322396 58.950406 -8.052553 36.069286 1.330657 0.000000 0.000000 0.000000 
7.306211 101.670364 3.980530 0.000000 0.000000 0.000000 -45.072056 -60.486304 -38.638339 2.929641 21.818476 -2.087242 23.631900 3.362219 2.558925 -6.162802 7.988068 2.930814 0.501327 -0.792459 0.124722 0.000000 0.000000 0.000000 -41.132273 -59.294969 -35.679119 1.424132 -8.659771 -2.056165 25.858097 8.519002 -3.037854 -9.914294 -20.320883 5.575386 -3.946785 7.228977 -16.077166 0.000000 0.000000 0.000000 -41.911738 -55.518206 -37.270529 8.570329 -2.423507 -2.055036 2.792592 -0.819216 -1.440768 0.169834 -0.211514 0.056410 0.000000 0.000000 0.000000 7.187009 0.308593 -0.417725 4.238193 6.228161 1.565803 -17.118039 -6.241444 12.145832 0.000000 0.000000 0.000000 6.029869 -1.140629 -0.832292 4.953629 -3.906210 -9.877005 6.135827 -8.680621 -0.105380 -31.615371 7.402028 -32.185986 7.124041 -48.896836 4.576650 0.000000 0.000000 0.000000 4.216668 -1.587069 -0.141973 -2.292175 9.374648 18.787946 4.071631 -0.117768 0.074652 -14.062022 3.351894 59.079121 -8.037289 36.049332 1.210246 0.000000 0.000000 0.000000 
7.605159 101.556259 4.358559 0.000000 0.000000 0.000000 -48.281863 -62.169652 -42.237289 3.654459 23.435834 -1.758790 23.715539 3.291633 2.023633 -7.235300 7.158451 3.341365 1.168227 -0.910576 0.948398 0.000000 0.000000 0.000000 -43.992808 -61.026408 -38.960745 1.363147 -8.500149 -1.699160 27.654203 6.962029 -2.577004 -11.104875 -20.371652 5.034989 -2.922541 6.834942 -14.792761 0.000000 0.000000 0.000000 -43.923191 -56.963320 -39.761700 8.800756 -2.667886 -2.046127 2.695514 -0.801159 -1.504489 0.149358 -0.221339 0.047326 0.000000 0.000000 0.000000 7.307531 0.295972 -0.448348 4.223535 6.328230 1.637799 -17.347513 -5.724005 12.632250 0.000000 0.000000 0.000000 6.148150 -1.143412 -0.863462 5.132713 -3.530027 -9.823757 6.288036 -8.979569 -0.048137 -32.005146 7.325942 -32.277094 7.161184 -48.985372 4.698925 0.000000 0.000000 0.000000 4.218120 -1.632903 -0.196364 -2.326052 9.252391 18.814852 4.406847 0.093030 -0.036726 -14.177405 3.367272 59.323902 -8.016673 36.064963 1.158080 0.000000 0.000000 0.000000 
